<svg t="1645882798785" class="icon" viewBox="0 0 1024 1024" version="1.1" xmlns="http://www.w3.org/2000/svg" p-id="2597" width="200" height="200"><path d="M512 512m-512 0a512 512 0 1 0 1024 0 512 512 0 1 0-1024 0Z" fill="#3AD0F9" p-id="2598"></path><path d="M824 848H176c-4.8 0-8-3.2-8-8s4-8 8-8h648c4.8 0 8 3.2 8 8s-4 8-8 8z" fill="#663210" p-id="2599"></path><path d="M363.2 280h328v560h-328z" fill="#FBD000" p-id="2600"></path><path d="M688 280h72v560h-72z" fill="#FBD000" p-id="2601"></path><path d="M400 320h248v388H400z" fill="#F99900" p-id="2602"></path><path d="M712 320h24v40h-24zM712 384.8h24V512h-24z" fill="#FFFFFF" p-id="2603"></path><path d="M688 848H360c-4.8 0-8-3.2-8-8V280c0-4.8 3.2-8 8-8h328c4.8 0 8 3.2 8 8v560c0 4.8-3.2 8-8 8z m-320-16h312V288H368v544z" fill="#663210" p-id="2604"></path><path d="M387.2 840h-168l-40-392h248z" fill="#90E1F4" p-id="2605"></path><path d="M760 848h-72c-4.8 0-8-3.2-8-8V280c0-4.8 3.2-8 8-8h72c4.8 0 8 3.2 8 8v560c0 4.8-3.2 8-8 8z m-64-16h56V288h-56v544z" fill="#663210" p-id="2606"></path><path d="M424 344h200v278.4H424z" fill="#F4D44E" p-id="2607"></path><path d="M196.8 617.6l22.4 222.4h168l22.4-222.4z" fill="#F99900" p-id="2608"></path><path d="M384 848H216c-4 0-7.2-3.2-8-7.2l-40-392c0-2.4 0.8-4.8 2.4-6.4 1.6-1.6 4-2.4 5.6-2.4h248c2.4 0 4.8 0.8 5.6 2.4 1.6 1.6 2.4 4 2.4 6.4l-40 392c-0.8 4-4 7.2-8 7.2z m-160.8-16h153.6l38.4-376H184.8l38.4 376z" fill="#663210" p-id="2609"></path><path d="M966.4 576H323.2c21.6 107.2 95.2 196 193.6 238.4v25.6h272v-33.6c90.4-44 157.6-128.8 177.6-230.4z" fill="#EAEAEA" p-id="2610"></path><path d="M648 768c-120.8 0-232.8-48.8-307.2-132.8 32.8 80 96 144.8 176 178.4v25.6h272v-33.6c72-35.2 129.6-96 160-171.2C874.4 719.2 768.8 768 648 768z" fill="#D4D6D6" p-id="2611"></path><path d="M764 280h-216l40-48h216z" fill="#F99900" p-id="2612"></path><path d="M760.8 280H548c-3.2 0-5.6 6.4-7.2 4-1.6-3.2-0.8-6.4 0.8-8.8l39.2-48c1.6-1.6 4-3.2 6.4-3.2H800c3.2 0 5.6 1.6 7.2 4.8 1.6 3.2 0.8 6.4-0.8 8.8l-41.6 51.2c-1.6 1.6-1.6-8.8-4-8.8z m-196-8h192.8l26.4-32H590.4l-25.6 32z" fill="#663210" p-id="2613"></path><path d="M367.2 280h324l-60-72H307.2z" fill="#FBD000" p-id="2614"></path><path d="M791.2 848H520.8c-4 0-8-3.2-8-8v-20.8C412.8 775.2 341.6 684.8 320 577.6c-0.8-2.4 0-4.8 1.6-6.4 1.6-1.6 4-3.2 6.4-3.2h640c2.4 0 4.8 0.8 6.4 3.2 1.6 1.6 2.4 4 1.6 6.4-20 100.8-85.6 187.2-176.8 234.4v28c0 4.8-3.2 8-8 8zM528 832h256.8v-25.6c0-3.2 0-5.6 2.4-7.2 85.6-42.4 149.6-114.4 170.4-207.2 0 0 1.6-8-6.4-8H346.4c-12 0-8 8-8 8 22.4 100 90.4 174.4 184.8 214.4 3.2 1.6 4 6.4 4 9.6v16zM691.2 280H364.8c-2.4 0-4.8 7.2-6.4 5.6l-60.8-72c-1.6-2.4-2.4-5.6-0.8-8.8 1.6-3.2 4-4.8 7.2-4.8h326.4c2.4 0 4.8 0.8 6.4 3.2l60.8 72c1.6 2.4 2.4 5.6 0.8 8.8-1.6 2.4-4-4-7.2-4zM368 272h305.6l-47.2-56H321.6l46.4 56z" fill="#663210" p-id="2615"></path><path d="M360 582.4c-4.8 0-8-3.2-8-8V456c0-4.8 3.2-8 8-8s8 3.2 8 8v118.4c0 4.8-3.2 8-8 8z" fill="#663210" p-id="2616"></path><path d="M336 488H224c-4.8 0-8-3.2-8-8s4-8 8-8h112c4.8 0 8 3.2 8 8s-4 8-8 8zM248 812c-4 0-7.2-3.2-8-7.2l-15.2-149.6c-0.8-4 2.4-8 7.2-8.8 4.8-0.8 8 2.4 8.8 7.2l15.2 149.6c0.8 4-2.4 8-7.2 8.8H248zM224 589.6c-4 0-7.2-3.2-8-7.2l-6.4-58.4c-0.8-4 2.4-8 7.2-8.8 4-0.8 8 2.4 8.8 7.2l6.4 58.4c0.8 4-2.4 8-7.2 8.8H224z" fill="#FFFFFF" opacity=".5" p-id="2617"></path><path d="M920 624h-96c-4.8 0-8-3.2-8-8s4-8 8-8h96c4.8 0 8 3.2 8 8s-4 8-8 8zM768 624H384c-4.8 0-8-3.2-8-8s4-8 8-8h384c4.8 0 8 3.2 8 8s-3.2 8-8 8zM200.8 297.6c0-3.2-3.2-6.4-8-7.2l-15.2-2.4c-4-0.8-8.8-4.8-8.8-8.8l-2.4-15.2c-0.8-4-4-8-7.2-8s-6.4 3.2-7.2 8l-2.4 15.2c-0.8 4-4.8 8.8-8.8 8.8l-15.2 2.4c-4 0.8-8 4-8 7.2s3.2 6.4 8 7.2l15.2 2.4c4 0.8 8.8 4.8 8.8 8.8l2.4 15.2c0.8 4 4 8 7.2 8s6.4-3.2 7.2-8l2.4-16.8c0.8-4 4.8-8 8.8-8.8l14.4-0.8c4.8-1.6 8.8-4 8.8-7.2zM672 104c0-3.2-3.2-6.4-8-7.2l-15.2-2.4c-4-0.8-8.8-4.8-8.8-8.8l-2.4-15.2c-0.8-4-4-8-7.2-8s-6.4 3.2-7.2 8l-2.4 15.2c-0.8 4-4.8 8.8-8.8 8.8l-15.2 2.4c-4 0.8-8 4-8 7.2s3.2 6.4 8 7.2l15.2 2.4c4 0.8 8.8 4.8 8.8 8.8l2.4 15.2c0.8 4 4 8 7.2 8s6.4-3.2 7.2-8L640 120c0.8-4 4.8-8 8.8-8.8l14.4-0.8c4.8 0 8.8-3.2 8.8-6.4zM935.2 492c0-3.2-3.2-6.4-8-7.2l-15.2-2.4c-4-0.8-8.8-4.8-8.8-8.8l-2.4-15.2c-0.8-4-4-8-7.2-8s-6.4 3.2-7.2 8l-2.4 15.2c-0.8 4-4.8 8.8-8.8 8.8l-15.2 2.4c-4 0.8-8 4-8 7.2s3.2 6.4 8 7.2l15.2 2.4c4 0.8 8.8 4.8 8.8 8.8l2.4 15.2c0.8 4 4 8 7.2 8s6.4-3.2 7.2-8l2.4-16.8c0.8-4 4.8-8 8.8-8.8l14.4-0.8c4.8-1.6 8.8-4.8 8.8-7.2zM880 384c-17.6 0-32-14.4-32-32s14.4-32 32-32 32 14.4 32 32-14.4 32-32 32z m0-48.8c-9.6 0-16.8 8-16.8 16.8 0 9.6 8 16.8 16.8 16.8 9.6 0 16.8-8 16.8-16.8 0-9.6-7.2-16.8-16.8-16.8zM424 152c-17.6 0-32-14.4-32-32s14.4-32 32-32 32 14.4 32 32-14.4 32-32 32z m0-48.8c-9.6 0-16.8 8-16.8 16.8 0 9.6 8 16.8 16.8 16.8 9.6 0 16.8-8 16.8-16.8 0-9.6-7.2-16.8-16.8-16.8zM96 608c-17.6 0-32-14.4-32-32s14.4-32 32-32 32 14.4 32 32-14.4 32-32 32z m0-48.8c-9.6 0-16.8 8-16.8 16.8 0 9.6 8 16.8 16.8 16.8 9.6 0 16.8-8 16.8-16.8 0-9.6-7.2-16.8-16.8-16.8z" fill="#FFFFFF" p-id="2618"></path><path d="M612.8 240h-240c-4.8 0-8-3.2-8-8s3.2-8 8-8h240c4.8 0 8 3.2 8 8s-3.2 8-8 8zM600 536.8c-4.8 0-8-3.2-8-8V376H504c-4.8 0-8-3.2-8-8s3.2-8 8-8h96c4.8 0 8 3.2 8 8v160.8c0 4-3.2 8-8 8z" fill="#FFFFFF" opacity=".5" p-id="2619"></path></svg>