<svg t="1645882840335" class="icon" viewBox="0 0 1024 1024" version="1.1" xmlns="http://www.w3.org/2000/svg" p-id="4959" width="200" height="200"><path d="M872 60H439.832C400.496 22.208 338.952 0 272 0c-53.936 0-105.048 14.272-143.92 40.184-42.616 28.408-66.08 67.408-66.08 109.816 0 42.4 23.464 81.408 66.08 109.816C166.952 285.728 218.064 300 272 300c66.96 0 128.496-22.208 167.832-60H872c49.624 0 90-40.376 90-90S921.624 60 872 60z m0 120H427.04a30 30 0 0 0-22.608 10.272C377.656 220.944 326.912 240 272 240c-81.304 0-150-41.216-150-90S190.696 60 272 60c54.912 0 105.656 19.056 132.432 49.728A30 30 0 0 0 427.04 120H872a30.032 30.032 0 0 1 30 30A30.032 30.032 0 0 1 872 180z m92 367.16c34.92 12.384 60 45.728 60 84.84v60c0 49.512-40.192 89.808-89.656 89.992l-23.28 164.688c-6.296 44.104-44.6 77.32-89.104 77.32h-619.92c-44.504 0-82.8-33.216-89.096-77.272l-23.288-164.736C40.192 781.808 0 741.512 0 692V632c0-39.112 25.08-72.456 60-84.84V512c0-49.624 40.376-90 90-90h724c49.624 0 90 40.376 90 90v35.16zM120 512v30h272a30 30 0 0 1 21.216 8.792l51.208 51.208h95.152l51.208-51.208A30 30 0 0 1 632 542h272V512a30.032 30.032 0 0 0-30-30h-724A30.032 30.032 0 0 0 120 512z m731.656 426.24l22.088-156.24H150.256l22.088 156.288a30.136 30.136 0 0 0 29.696 25.712h619.92a30.152 30.152 0 0 0 29.696-25.76zM964 692V632a30.032 30.032 0 0 0-30-30H644.424l-51.208 51.208A30 30 0 0 1 572 662h-120a30 30 0 0 1-21.216-8.792l-51.208-51.208H90A30.032 30.032 0 0 0 60 632v60a30.032 30.032 0 0 0 30 30h844a30.032 30.032 0 0 0 30-30z" fill="#4A90E2" p-id="4960"></path></svg>