<svg t="1645275293276" class="icon" viewBox="0 0 1024 1024" version="1.1" xmlns="http://www.w3.org/2000/svg" p-id="83375" width="200" height="200"><path d="M511.744 918.4768c-227.4816 0-412.5184-185.0368-412.5184-412.5184 0-227.4816 185.0368-412.5184 412.5184-412.5184 227.4304 0 412.5184 185.0368 412.5184 412.5184-0.0512 227.4304-185.088 412.5184-412.5184 412.5184z m0-763.5968c-193.5872 0-351.0784 157.4912-351.0784 351.0784s157.4912 351.0784 351.0784 351.0784 351.0784-157.4912 351.0784-351.0784-157.4912-351.0784-351.0784-351.0784z" fill="#333333" p-id="83376"></path><path d="M716.032 548.608l-100.5568-100.5568a41.06752 41.06752 0 0 0-58.0608 0l-100.5568 100.5568a41.06752 41.06752 0 0 0 0 58.0608l100.5568 100.5568a41.06752 41.06752 0 0 0 58.0608 0l100.5568-100.5568a41.06752 41.06752 0 0 0 0-58.0608z" fill="#F55C04" p-id="83377"></path><path d="M511.744 678.2464c-19.1488 0-37.1712-7.4752-50.7392-21.0432L360.448 556.6976a71.30624 71.30624 0 0 1-21.0432-50.7392c0-19.1488 7.4752-37.1712 21.0432-50.7392l100.5568-100.5568c27.9552-27.9552 73.5232-27.9552 101.4784 0l100.5568 100.5568c13.568 13.568 21.0432 31.5904 21.0432 50.7392s-7.4752 37.1712-21.0432 50.7392l-100.5568 100.5568c-13.568 13.568-31.5904 20.992-50.7392 20.992z m0-283.1872c-2.6624 0-5.2736 1.024-7.3216 3.0208L403.8656 498.6368c-2.6112 2.6112-3.0208 5.6832-3.0208 7.3216 0 1.5872 0.4096 4.6592 3.0208 7.3216l100.5568 100.5568c4.0448 4.0448 10.5984 4.0448 14.592 0l100.5568-100.5568c4.0448-4.0448 4.0448-10.5984 0-14.592l-100.5568-100.5568c-1.9968-2.048-4.6592-3.072-7.2704-3.072z" fill="#333333" p-id="83378"></path></svg>