<svg t="1645882869170" class="icon" viewBox="0 0 1248 1024" version="1.1" xmlns="http://www.w3.org/2000/svg" p-id="5696" width="200" height="200"><path d="M1233.119952 6.904976a36.571418 36.571418 0 0 0-32.953285-5.022474 356.937041 356.937041 0 0 0-183.705548 139.644303C921.453451 51.063745 794.428725 0.000293 660.723621 0.000293a516.973567 516.973567 0 0 0-195.418154 38.131798A513.345682 513.345682 0 0 0 365.714181 91.935962V36.571711a36.571418 36.571418 0 0 0-73.142836 0V219.428801h-73.142836V36.571711a36.571418 36.571418 0 0 0-73.142837 0V219.428801H73.142836V36.571711a36.571418 36.571418 0 0 0-73.142836 0v292.571345C0 389.637057 49.220253 438.85731 109.714254 438.85731H146.285672v152.575956c-42.569131 15.096681-73.142836 55.744594-73.142836 103.423971v219.428509c0 60.494002 49.220253 109.714254 109.714255 109.714254S292.571345 974.779747 292.571345 914.285746v-44.324559C392.367431 971.259139 526.189564 1024 660.723621 1024c134.485295 0 268.326933-52.711604 368.152276-154.038813v44.324559c0 60.494002 49.220253 109.714254 109.714254 109.714254S1248.304405 974.779747 1248.304405 914.285746v-877.714035a36.571418 36.571418 0 0 0-15.184453-29.666735zM109.714254 365.714474a36.610428 36.610428 0 0 1-36.571418-36.571418V292.571638H292.571345v36.571418a36.610428 36.610428 0 0 1-36.571418 36.571418h-146.285673zM219.428509 914.285746a36.610428 36.610428 0 0 1-36.571418 36.571418A36.610428 36.610428 0 0 1 146.285672 914.285746v-219.428509a36.610428 36.610428 0 0 1 36.571419-36.571418 36.610428 36.610428 0 0 1 36.571418 36.571418v219.428509z m809.447388-159.695193C948.087196 875.890633 808.023541 950.857164 660.723621 950.857164c-147.290167 0-287.363575-74.966531-368.152276-196.266611V694.857237c0-47.679377-30.573706-88.327289-73.142836-103.423971V438.85731h36.571418c60.494002 0 109.714254-49.220253 109.714254-109.714254V184.954144C445.556901 113.742279 552.179652 73.143129 660.723621 73.143129c121.904727 0 237.285113 49.337281 320.092556 136.084685A357.444165 357.444165 0 0 0 955.73306 341.0117V621.714401a36.571418 36.571418 0 0 0 36.571418 36.571418h36.571419v96.304734z m146.285672 159.695193a36.610428 36.610428 0 0 1-36.571418 36.571418 36.610428 36.610428 0 0 1-36.571418-36.571418V658.285819h73.142836v255.999927z m0-329.142763h-146.285672V341.0117a284.1843 284.1843 0 0 1 146.285672-248.617377V585.142983z m-311.237397-19.865595c-4.330056 11.546816-10.308264 33.548181-1.726171 51.317014a178.46852 178.46852 0 0 1 17.954128 78.262835C880.152129 795.687075 798.124877 877.714328 697.295039 877.714328c-83.090262 0-155.579689-55.695832-176.313245-135.460533-4.22278-16.266967-13.887387-38.648675-35.869247-52.85789-88.034718-56.885622-132.0472-160.641173-112.113339-264.318705 19.631537-102.165914 103.063132-183.071643 203.434608-201.30859C736.987218 194.579742 880.152129 316.806297 880.152129 475.428728c0 30.905286-5.461332 61.137659-16.227957 89.84866z m-67.58398 83.148776c-15.145443-31.353896-15.467272-69.992818-0.906972-108.83654a182.096405 182.096405 0 0 0 11.576073-64.160896 182.974119 182.974119 0 0 0-217.497538-179.69732c-71.484932 12.990168-130.974439 71.865275-144.686282 143.155159-14.492034 75.385883 16.159691 147.836301 79.979253 189.079108 33.060562 21.357708 56.22246 54.515794 66.969581 95.895135 12.356263 47.523339 55.744594 80.710682 105.520732 80.710681 60.494002 0 109.714254-49.220253 109.714254-109.714254 0-16.169443-3.588875-31.792753-10.659349-46.431073zM624.152203 365.714474c60.494002 0 109.714254 49.220253 109.714254 109.714254S684.646204 585.142983 624.152203 585.142983s-109.714254-49.220253-109.714255-109.714255S563.658201 365.714474 624.152203 365.714474z m0 146.285672a36.610428 36.610428 0 0 0 36.571418-36.571418A36.610428 36.610428 0 0 0 624.152203 438.85731a36.610428 36.610428 0 0 0-36.571418 36.571418A36.610428 36.610428 0 0 0 624.152203 512.000146z" fill="#4A90E2" p-id="5697"></path></svg>