<svg t="1645883595570" class="icon" viewBox="0 0 1024 1024" version="1.1" xmlns="http://www.w3.org/2000/svg" p-id="6586" width="200" height="200"><path d="M422.443 203.706c32.837 4.717 79.625 11.385 100.056 18.778-15.058 6.35-46.036 12.563-66.176 16.6-56.446 11.295-101.078 20.186-101.078 51.889 0 38.555 46.921 52.252 87.085 52.252 9.617 0 17.417-7.8 17.417-17.417s-7.8-17.417-17.417-17.417c-19.32 0-47.739-5.943-51.752-15.195 10.092-7.485 48.85-15.24 72.571-20.002 56.47-11.25 101.101-20.186 101.101-51.889 0-31.16-44.404-38.87-136.888-52.07-34.062-4.897-83.05-11.838-102.19-19.593 31.614-21.68 170.318-50.256 221.661-50.256 9.617 0 17.417-7.801 17.417-17.417 0-9.617-7.8-17.417-17.417-17.417-17.122 0-261.257 25.446-261.257 87.086 0.001 31.16 44.405 38.869 136.867 52.068z m298.563 178.526H93.988V813.49c0 76.653 62.683 145.96 139.337 145.96H581.67c76.631 0 139.337-69.307 139.337-145.96 115.434 0 209.006-93.619 209.006-209.007 0-115.389-93.573-222.25-209.006-222.25z m0 326.753V499.98c57.604 0 104.503 46.898 104.503 104.503S778.61 708.985 721.006 708.985z" p-id="6587"></path></svg>